<?xml version="1.0" standalone="no"?><svg xmlns="http://www.w3.org/2000/svg" viewBox="0 0 1440 320"><path fill="#EAF3FA" fill-opacity="1" d="M0,160L30,165.3C60,171,120,181,180,176C240,171,300,149,360,117.3C420,85,480,43,540,48C600,53,660,107,720,154.7C780,203,840,245,900,229.3C960,213,1020,139,1080,96C1140,53,1200,43,1260,37.3C1320,32,1380,32,1410,32L1440,32L1440,0L1410,0C1380,0,1320,0,1260,0C1200,0,1140,0,1080,0C1020,0,960,0,900,0C840,0,780,0,720,0C660,0,600,0,540,0C480,0,420,0,360,0C300,0,240,0,180,0C120,0,60,0,30,0L0,0Z"></path></svg>