<?xml version="1.0" standalone="no"?><svg xmlns="http://www.w3.org/2000/svg" viewBox="0 0 1440 320"><path fill="#eaf3fa" fill-opacity="1" d="M0,160L26.7,149.3C53.3,139,107,117,160,128C213.3,139,267,181,320,186.7C373.3,192,427,160,480,149.3C533.3,139,587,149,640,176C693.3,203,747,245,800,250.7C853.3,256,907,224,960,186.7C1013.3,149,1067,107,1120,112C1173.3,117,1227,171,1280,165.3C1333.3,160,1387,96,1413,64L1440,32L1440,320L1413.3,320C1386.7,320,1333,320,1280,320C1226.7,320,1173,320,1120,320C1066.7,320,1013,320,960,320C906.7,320,853,320,800,320C746.7,320,693,320,640,320C586.7,320,533,320,480,320C426.7,320,373,320,320,320C266.7,320,213,320,160,320C106.7,320,53,320,27,320L0,320Z"></path></svg>